<svg xmlns="http://www.w3.org/2000/svg" xmlns:xlink="http://www.w3.org/1999/xlink" version="1.1" width="256" height="256" viewBox="0 0 256 256" xml:space="preserve">

<defs>
</defs>
<g style="stroke: none; stroke-width: 0; stroke-dasharray: none; stroke-linecap: butt; stroke-linejoin: miter; stroke-miterlimit: 10; fill: none; fill-rule: nonzero; opacity: 1;" transform="translate(1.4065934065934016 1.4065934065934016) scale(2.81 2.81)" >
	<circle cx="45" cy="45" r="45" style="stroke: none; stroke-width: 1; stroke-dasharray: none; stroke-linecap: butt; stroke-linejoin: miter; stroke-miterlimit: 10; fill: rgb(32,196,203); fill-rule: nonzero; opacity: 1;" transform="  matrix(1 0 0 1 0 0) "/>
	<path d="M 44.848 44.797 H 39.46 c -3.898 0 -7.087 -3.189 -7.087 -7.087 V 25.043 c 0 -3.898 3.189 -7.087 7.087 -7.087 h 5.388 c 3.898 0 7.087 3.189 7.087 7.087 V 37.71 C 51.935 41.608 48.746 44.797 44.848 44.797 z" style="stroke: none; stroke-width: 1; stroke-dasharray: none; stroke-linecap: butt; stroke-linejoin: miter; stroke-miterlimit: 10; fill: rgb(27,167,173); fill-rule: nonzero; opacity: 1;" transform=" matrix(1 0 0 1 0 0) " stroke-linecap="round" />
	<path d="M 44.848 46.296 H 39.46 c -4.735 0 -8.587 -3.852 -8.587 -8.586 V 25.043 c 0 -4.735 3.852 -8.587 8.587 -8.587 h 5.388 c 4.735 0 8.586 3.852 8.586 8.587 V 37.71 C 53.435 42.444 49.583 46.296 44.848 46.296 z M 39.46 19.456 c -3.081 0 -5.587 2.506 -5.587 5.587 V 37.71 c 0 3.081 2.506 5.586 5.587 5.586 h 5.388 c 3.081 0 5.586 -2.506 5.586 -5.586 V 25.043 c 0 -3.081 -2.506 -5.587 -5.586 -5.587 H 39.46 z" style="stroke: none; stroke-width: 1; stroke-dasharray: none; stroke-linecap: butt; stroke-linejoin: miter; stroke-miterlimit: 10; fill: rgb(27,167,173); fill-rule: nonzero; opacity: 1;" transform=" matrix(1 0 0 1 0 0) " stroke-linecap="round" />
	<path d="M 45.577 56.641 h -6.846 c -9.822 0 -17.813 -7.99 -17.813 -17.813 c 0 -1.657 1.343 -3 3 -3 s 3 1.343 3 3 c 0 6.514 5.299 11.813 11.813 11.813 h 6.846 c 6.514 0 11.813 -5.299 11.813 -11.813 c 0 -1.657 1.343 -3 3 -3 s 3 1.343 3 3 C 63.39 48.65 55.399 56.641 45.577 56.641 z" style="stroke: none; stroke-width: 1; stroke-dasharray: none; stroke-linecap: butt; stroke-linejoin: miter; stroke-miterlimit: 10; fill: rgb(27,167,173); fill-rule: nonzero; opacity: 1;" transform=" matrix(1 0 0 1 0 0) " stroke-linecap="round" />
	<path d="M 42.154 77.014 c -1.657 0 -3 -1.343 -3 -3 V 53.641 c 0 -1.657 1.343 -3 3 -3 s 3 1.343 3 3 v 20.373 C 45.154 75.671 43.811 77.014 42.154 77.014 z" style="stroke: none; stroke-width: 1; stroke-dasharray: none; stroke-linecap: butt; stroke-linejoin: miter; stroke-miterlimit: 10; fill: rgb(27,167,173); fill-rule: nonzero; opacity: 1;" transform=" matrix(1 0 0 1 0 0) " stroke-linecap="round" />
	<path d="M 49.389 78.265 h -14.47 c -1.657 0 -3 -1.343 -3 -3 s 1.343 -3 3 -3 h 14.47 c 1.657 0 3 1.343 3 3 S 51.046 78.265 49.389 78.265 z" style="stroke: none; stroke-width: 1; stroke-dasharray: none; stroke-linecap: butt; stroke-linejoin: miter; stroke-miterlimit: 10; fill: rgb(27,167,173); fill-rule: nonzero; opacity: 1;" transform=" matrix(1 0 0 1 0 0) " stroke-linecap="round" />
	<path d="M 47.54 42.105 h -5.388 c -3.898 0 -7.087 -3.189 -7.087 -7.087 V 22.351 c 0 -3.898 3.189 -7.087 7.087 -7.087 h 5.388 c 3.898 0 7.087 3.189 7.087 7.087 v 12.667 C 54.627 38.916 51.438 42.105 47.54 42.105 z" style="stroke: none; stroke-width: 1; stroke-dasharray: none; stroke-linecap: butt; stroke-linejoin: miter; stroke-miterlimit: 10; fill: rgb(255,255,255); fill-rule: nonzero; opacity: 1;" transform=" matrix(1 0 0 1 0 0) " stroke-linecap="round" />
	<path d="M 47.54 43.604 h -5.388 c -4.735 0 -8.587 -3.852 -8.587 -8.586 V 22.351 c 0 -4.735 3.852 -8.587 8.587 -8.587 h 5.388 c 4.734 0 8.587 3.852 8.587 8.587 v 12.667 C 56.127 39.752 52.274 43.604 47.54 43.604 z M 42.152 16.764 c -3.081 0 -5.587 2.506 -5.587 5.587 v 12.667 c 0 3.081 2.506 5.586 5.587 5.586 h 5.388 c 3.081 0 5.587 -2.506 5.587 -5.586 V 22.351 c 0 -3.081 -2.506 -5.587 -5.587 -5.587 H 42.152 z" style="stroke: none; stroke-width: 1; stroke-dasharray: none; stroke-linecap: butt; stroke-linejoin: miter; stroke-miterlimit: 10; fill: rgb(255,255,255); fill-rule: nonzero; opacity: 1;" transform=" matrix(1 0 0 1 0 0) " stroke-linecap="round" />
	<path d="M 48.269 53.948 h -6.846 c -9.822 0 -17.813 -7.99 -17.813 -17.812 c 0 -1.657 1.343 -3 3 -3 s 3 1.343 3 3 c 0 6.513 5.299 11.812 11.813 11.812 h 6.846 c 6.514 0 11.813 -5.299 11.813 -11.812 c 0 -1.657 1.343 -3 3 -3 s 3 1.343 3 3 C 66.081 45.958 58.091 53.948 48.269 53.948 z" style="stroke: none; stroke-width: 1; stroke-dasharray: none; stroke-linecap: butt; stroke-linejoin: miter; stroke-miterlimit: 10; fill: rgb(255,255,255); fill-rule: nonzero; opacity: 1;" transform=" matrix(1 0 0 1 0 0) " stroke-linecap="round" />
	<path d="M 44.846 74.321 c -1.657 0 -3 -1.343 -3 -3 V 50.948 c 0 -1.657 1.343 -3 3 -3 s 3 1.343 3 3 v 20.373 C 47.846 72.979 46.503 74.321 44.846 74.321 z" style="stroke: none; stroke-width: 1; stroke-dasharray: none; stroke-linecap: butt; stroke-linejoin: miter; stroke-miterlimit: 10; fill: rgb(255,255,255); fill-rule: nonzero; opacity: 1;" transform=" matrix(1 0 0 1 0 0) " stroke-linecap="round" />
	<path d="M 52.081 75.572 h -14.47 c -1.657 0 -3 -1.343 -3 -3 s 1.343 -3 3 -3 h 14.47 c 1.657 0 3 1.343 3 3 S 53.738 75.572 52.081 75.572 z" style="stroke: none; stroke-width: 1; stroke-dasharray: none; stroke-linecap: butt; stroke-linejoin: miter; stroke-miterlimit: 10; fill: rgb(255,255,255); fill-rule: nonzero; opacity: 1;" transform=" matrix(1 0 0 1 0 0) " stroke-linecap="round" />
</g>
</svg>